<svg width="40" height="40" viewBox="0 0 40 40" fill="none" xmlns="http://www.w3.org/2000/svg">
<g opacity="0.65">
<path d="M20 20.0002C18.1667 20.0002 16.6667 18.5002 16.6667 16.6668C16.6667 14.8335 18.1667 13.3335 20 13.3335C21.8333 13.3335 23.3333 14.8335 23.3333 16.6668C23.3333 18.5002 21.8333 20.0002 20 20.0002ZM30 17.0002C30 10.9502 25.5833 6.66683 20 6.66683C14.4167 6.66683 9.99999 10.9502 9.99999 17.0002C9.99999 20.9002 13.25 26.0668 20 32.2335C26.75 26.0668 30 20.9002 30 17.0002ZM20 3.3335C27 3.3335 33.3333 8.70016 33.3333 17.0002C33.3333 22.5335 28.8833 29.0835 20 36.6668C11.1167 29.0835 6.66666 22.5335 6.66666 17.0002C6.66666 8.70016 13 3.3335 20 3.3335Z" fill="#233000"/>
</g>
</svg>
