<svg width="40" height="40" viewBox="0 0 40 40" fill="none" xmlns="http://www.w3.org/2000/svg">
<g opacity="0.65">
<path d="M30 13.3332H28.3333V9.99984C28.3333 5.39984 24.6 1.6665 20 1.6665C15.4 1.6665 11.6666 5.39984 11.6666 9.99984V13.3332H9.99996C8.16663 13.3332 6.66663 14.8332 6.66663 16.6665V33.3332C6.66663 35.1665 8.16663 36.6665 9.99996 36.6665H30C31.8333 36.6665 33.3333 35.1665 33.3333 33.3332V16.6665C33.3333 14.8332 31.8333 13.3332 30 13.3332ZM20 28.3332C18.1666 28.3332 16.6666 26.8332 16.6666 24.9998C16.6666 23.1665 18.1666 21.6665 20 21.6665C21.8333 21.6665 23.3333 23.1665 23.3333 24.9998C23.3333 26.8332 21.8333 28.3332 20 28.3332ZM25.1666 13.3332H14.8333V9.99984C14.8333 7.14984 17.15 4.83317 20 4.83317C22.85 4.83317 25.1666 7.14984 25.1666 9.99984V13.3332Z" fill="#233000"/>
</g>
</svg>
