<svg width="55" height="55" viewBox="0 0 55 55" fill="none" xmlns="http://www.w3.org/2000/svg">
<path d="M44.6875 8.021L41.25 4.5835L37.8125 8.021L34.375 4.5835L30.9375 8.021L27.5 4.5835L24.0625 8.021L20.625 4.5835L17.1875 8.021L13.75 4.5835V36.6668H6.875V43.5418C6.875 47.346 9.94583 50.4168 13.75 50.4168H41.25C45.0542 50.4168 48.125 47.346 48.125 43.5418V4.5835L44.6875 8.021ZM34.375 45.8335H13.75C12.4896 45.8335 11.4583 44.8022 11.4583 43.5418V41.2502H34.375V45.8335ZM43.5417 43.5418C43.5417 44.8022 42.5104 45.8335 41.25 45.8335C39.9896 45.8335 38.9583 44.8022 38.9583 43.5418V36.6668H18.3333V11.4585H43.5417V43.5418Z" fill="#233000"/>
<path d="M34.375 16.0418H20.625V20.6252H34.375V16.0418Z" fill="#233000"/>
<path d="M41.25 16.0418H36.6667V20.6252H41.25V16.0418Z" fill="#233000"/>
<path d="M34.375 22.9168H20.625V27.5002H34.375V22.9168Z" fill="#233000"/>
<path d="M41.25 22.9168H36.6667V27.5002H41.25V22.9168Z" fill="#233000"/>
</svg>
