<svg width="24" height="24" viewBox="0 0 24 24" fill="none" xmlns="http://www.w3.org/2000/svg">
<path fill-rule="evenodd" clip-rule="evenodd" d="M10.6667 4.75C7.39898 4.75 4.75 7.39898 4.75 10.6667C4.75 13.9344 7.39898 16.5833 10.6667 16.5833C13.9344 16.5833 16.5833 13.9344 16.5833 10.6667C16.5833 7.39898 13.9344 4.75 10.6667 4.75ZM3.25 10.6667C3.25 6.57055 6.57055 3.25 10.6667 3.25C14.7628 3.25 18.0833 6.57055 18.0833 10.6667C18.0833 14.7628 14.7628 18.0833 10.6667 18.0833C6.57055 18.0833 3.25 14.7628 3.25 10.6667Z" fill="#233000"/>
<path fill-rule="evenodd" clip-rule="evenodd" d="M15.0253 15.0253C15.3182 14.7324 15.7931 14.7324 16.086 15.0253L20.5304 19.4698C20.8233 19.7627 20.8233 20.2375 20.5304 20.5304C20.2375 20.8233 19.7627 20.8233 19.4698 20.5304L15.0253 16.086C14.7324 15.7931 14.7324 15.3182 15.0253 15.0253Z" fill="#233000"/>
<path fill-rule="evenodd" clip-rule="evenodd" d="M16.4889 13.9179C16.9024 13.9425 17.2176 14.2976 17.193 14.7111C17.1534 15.3765 17.0203 16.0216 16.5433 16.494C16.0804 16.9526 15.4311 17.1078 14.7561 17.1889C14.3449 17.2384 13.9714 16.9451 13.9219 16.5338C13.8725 16.1226 14.1658 15.7491 14.577 15.6997C15.2025 15.6245 15.4053 15.51 15.4877 15.4283C15.5561 15.3606 15.6616 15.1949 15.6957 14.622C15.7203 14.2085 16.0754 13.8932 16.4889 13.9179Z" fill="#233000"/>
</svg>
