<svg width="343" height="343" viewBox="0 0 343 343" fill="none" xmlns="http://www.w3.org/2000/svg">
<path d="M280.636 124.727L300.125 81.8523L343 62.3636L300.125 42.875L280.636 0L261.148 42.875L218.273 62.3636L261.148 81.8523L280.636 124.727Z" fill="#5E6600"/>
<path d="M280.636 218.273L261.148 261.148L218.273 280.636L261.148 300.125L280.636 343L300.125 300.125L343 280.636L300.125 261.148L280.636 218.273Z" fill="#5E6600"/>
<path d="M163.705 132.523L124.727 46.7727L85.75 132.523L0 171.5L85.75 210.477L124.727 296.227L163.705 210.477L249.455 171.5L163.705 132.523ZM140.162 186.935L124.727 220.923L109.292 186.935L75.3041 171.5L109.292 156.065L124.727 122.077L140.162 156.065L174.15 171.5L140.162 186.935Z" fill="#5E6600"/>
</svg>
