<svg width="38" height="38" viewBox="0 0 38 38" fill="none" xmlns="http://www.w3.org/2000/svg">
<path d="M19 3.1665C10.26 3.1665 3.16663 10.2598 3.16663 18.9998C3.16663 27.7398 10.26 34.8332 19 34.8332C27.74 34.8332 34.8333 27.7398 34.8333 18.9998C34.8333 10.2598 27.74 3.1665 19 3.1665ZM19 7.9165C21.6283 7.9165 23.75 10.0382 23.75 12.6665C23.75 15.2948 21.6283 17.4165 19 17.4165C16.3716 17.4165 14.25 15.2948 14.25 12.6665C14.25 10.0382 16.3716 7.9165 19 7.9165ZM19 30.3998C15.0416 30.3998 11.5425 28.3732 9.49996 25.3015C9.54746 22.1507 15.8333 20.4248 19 20.4248C22.1508 20.4248 28.4525 22.1507 28.5 25.3015C26.4575 28.3732 22.9583 30.3998 19 30.3998Z" fill="#233000"/>
</svg>
